#!OML:ASF F:\VICON\USERDATA\INSTALL\rory3\rory3.ASF
:FULLY-SPECIFIED
:DEGREES
1763
root 12.0865 18.2707 -0.021923 181.312 181.112 -174.55
lowerback 9.04595 -0.923959 -3.73769
upperback 2.99809 -1.56243 -0.343893
thorax -1.86747 -0.784708 1.90727
lowerneck -10.8404 5.07449 -10.5733
upperneck 47.8667 10.5735 2.64323
head 19.8813 2.56454 5.14389
rclavicle -4.96962e-015 -1.98785e-015
rhumerus -38.4014 -13.3426 -79.5269
rradius 30.6531
rwrist 6.04415
rhand -14.4434 5.9009
rfingers 7.12502
rthumb 11.7016 -23.7523
lclavicle -4.96962e-015 -1.98785e-015
lhumerus -21.0755 2.66666 84.5897
lradius 43.9962
lwrist 1.09452
lhand -18.2052 26.7704
lfingers 7.12502
lthumb 8.07229 56.5962
rfemur -23.9354 -6.50315 21.5996
rtibia 32.0877
rfoot -2.01863 -3.13696
rtoes 10.8488
lfemur 7.22624 -5.24258 -25.0232
ltibia 19.5063
lfoot 0.329222 -10.8265
ltoes -18.2389
1764
root 12.122 18.2842 -0.144118 181.495 181.019 -174.329
lowerback 9.17464 -0.930021 -3.96593
upperback 3.15291 -1.59299 -0.377555
thorax -1.77015 -0.804258 2.00436
lowerneck -11.3394 5.06548 -10.7107
upperneck 47.8957 10.648 2.75286
head 20.0157 2.56576 5.27066
rclavicle 1.2921e-015 1.23246e-014
rhumerus -37.5988 -13.5372 -79.5698
rradius 30.5624
rwrist 6.11999
rhand -14.5359 5.98288
rfingers 7.12502
rthumb 11.6124 -23.6754
lclavicle 1.2921e-015 1.23246e-014
lhumerus -20.5193 3.10814 84.5249
lradius 43.8649
lwrist 0.734237
lhand -18.0546 26.6757
lfingers 7.12502
lthumb 8.21768 56.4959
rfemur -24.3988 -6.50322 21.274
rtibia 31.7923
rfoot -1.77323 -3.05582
rtoes 9.40561
lfemur 6.77773 -5.42669 -25.3659
ltibia 19.1999
lfoot 0.409042 -10.8816
ltoes -15.1613
1765
root 12.1589 18.2929 -0.266291 181.668 181 -174.205
lowerback 9.28789 -0.881195 -4.01744
upperback 3.00394 -1.54372 -0.436828
thorax -1.9904 -0.772974 1.97175
lowerneck -10.7455 5.12891 -10.5781
upperneck 47.8515 10.6292 2.67981
head 19.8298 2.59907 5.16329
rclavicle 1.47101e-014 1.23246e-014
rhumerus -37.5985 -13.9559 -79.3499
rradius 30.5534
rwrist 6.43401
rhand -14.4838 6.14642
rfingers 7.12502
rthumb 11.6625 -23.509
lclavicle 1.47101e-014 1.23246e-014
lhumerus -20.7724 3.28531 84.4609
lradius 43.928
lwrist 0.510917
lhand -18.147 26.959
lfingers 7.12502
lthumb 8.12844 56.7826
rfemur -24.8796 -6.66493 21.079
rtibia 31.5046
rfoot -1.27769 -2.82387
rtoes 8.68521
lfemur 6.30338 -5.50205 -25.58
ltibia 18.9012
lfoot 0.460138 -10.8821
ltoes -13.1699
1766
root 12.1983 18.2949 -0.3895 181.879 181.065 -174.155
lowerback 9.44973 -0.890715 -4.00783
upperback 3.12815 -1.55999 -0.447652
thorax -1.95027 -0.783498 1.95886
lowerneck -11.3256 5.15781 -10.6293
upperneck 48.0002 10.8637 2.5859
head 20.0947 2.63324 5.21781
rclavicle 7.35503e-015 1.15295e-014
rhumerus -36.8566 -13.9277 -79.5058
rradius 30.6406
rwrist 6.39214
rhand -14.5001 5.93163
rfingers 7.12502
rthumb 11.6468 -23.7247
lclavicle 7.35503e-015 1.15295e-014
lhumerus -20.4212 3.75816 84.3571
lradius 43.9593
lwrist 0.488036
lhand -18.3311 27.01
lfingers 7.12502
lthumb 7.95081 56.8404
rfemur -25.4432 -6.86431 20.9712
rtibia 31.2013
rfoot -0.628385 -2.60099
rtoes 8.85633
lfemur 5.79347 -5.41814 -25.6953
ltibia 18.6135
lfoot -0.057897 -10.7422
ltoes -15.2463
1767
root 12.2398 18.2933 -0.513932 182.132 181.167 -174.084
lowerback 9.45624 -0.879528 -3.95984
upperback 3.07337 -1.54442 -0.514977
thorax -2.01505 -0.773365 1.86155
lowerneck -11.0875 5.24891 -10.472
upperneck 48.0349 10.9977 2.41867
head 20.0706 2.69548 5.11615
rclavicle 2.68359e-014 -3.57812e-015
rhumerus -36.5314 -13.8612 -79.631
rradius 30.7451
rwrist 6.31213
rhand -14.4777 5.88662
rfingers 7.12502
rthumb 11.6684 -23.7685
lclavicle 2.68359e-014 -3.57812e-015
lhumerus -20.5785 4.11422 84.169
lradius 44.0932
lwrist 0.454742
lhand -18.4956 26.9774
lfingers 7.12502
lthumb 7.79202 56.8138
rfemur -26.0141 -6.91541 20.797
rtibia 30.8621
rfoot -0.179144 -2.47548
rtoes 8.87973
lfemur 5.23298 -5.23982 -25.8179
ltibia 18.4206
lfoot -0.627887 -10.8729
ltoes -17.0542
1768
root 12.2783 18.2937 -0.636507 182.401 181.314 -174.061
lowerback 9.35522 -0.829753 -3.91852
upperback 3.07317 -1.47061 -0.539737
thorax -1.96591 -0.737504 1.80267
lowerneck -10.8733 5.32723 -10.5318
upperneck 47.9652 11.0616 2.48223
head 19.9347 2.73625 5.14433
rclavicle -6.26172e-015 -2.38542e-015
rhumerus -36.1101 -14.1124 -79.6213
rradius 30.7284
rwrist 6.51712
rhand -14.4414 6.28402
rfingers 7.12502
rthumb 11.7035 -23.3691
lclavicle -6.26172e-015 -2.38542e-015
lhumerus -20.7039 4.45898 84.0594
lradius 44.2318
lwrist 0.407361
lhand -18.3552 27.0271
lfingers 7.12502
lthumb 7.92755 56.8584
rfemur -26.5104 -6.75578 20.6263
rtibia 30.4709
rfoot 0.0579962 -2.47452
rtoes 8.87303
lfemur 4.58683 -4.87371 -25.8316
ltibia 18.3834
lfoot -0.920932 -11.3333
ltoes -16.4011
1769
root 12.3148 18.2965 -0.757394 182.622 181.469 -174.059
lowerback 9.38925 -0.742675 -3.86482
upperback 3.23689 -1.34847 -0.578262
thorax -1.82443 -0.681358 1.71846
lowerneck -11.3647 5.30231 -10.6453
upperneck 47.9922 11.1088 2.58534
head 20.0704 2.72985 5.26003
rclavicle -9.83984e-015 -7.95139e-016
rhumerus -35.4693 -14.2944 -79.7917
rradius 30.9281
rwrist 6.52397
rhand -14.4229 6.22592
rfingers 7.12502
rthumb 11.7213 -23.4261
lclavicle -9.83984e-015 -7.95139e-016
lhumerus -20.403 4.77394 83.9589
lradius 44.2648
lwrist 0.471621
lhand -18.2533 27.2182
lfingers 7.12502
lthumb 8.0259 57.0458
rfemur -26.9058 -6.66574 20.4714
rtibia 30.0091
rfoot 0.250899 -2.58319
rtoes 10.1755
lfemur 3.91606 -4.50325 -25.8222
ltibia 18.4811
lfoot -1.26307 -11.6169
ltoes -15.4192
1770
root 12.3511 18.2952 -0.878103 182.807 181.563 -173.883
lowerback 9.44746 -0.647234 -3.97927
upperback 3.18477 -1.23854 -0.650307
thorax -1.91575 -0.62421 1.69828
lowerneck -11.089 5.33183 -10.4763
upperneck 48.0438 11.1405 2.42291
head 20.0606 2.75583 5.14299
rclavicle 7.95139e-016 -7.95139e-015
rhumerus -35.3574 -14.3063 -79.8038
rradius 31.1973
rwrist 6.40063
rhand -14.4519 6.28001
rfingers 7.12502
rthumb 11.6933 -23.3737
lclavicle 7.95139e-016 -7.95139e-015
lhumerus -20.6351 5.06315 83.8572
lradius 44.3836
lwrist 0.495443
lhand -18.382 27.5184
lfingers 7.12502
lthumb 7.90162 57.3507
rfemur -27.2853 -6.63359 20.1161
rtibia 29.5503
rfoot 0.27268 -2.80233
rtoes 11.6406
lfemur 3.23876 -4.16164 -26.0082
ltibia 18.6265
lfoot -1.59714 -11.8321
ltoes -14.9
1771
root 12.3871 18.2867 -0.994346 182.973 181.607 -173.734
lowerback 9.56515 -0.603507 -4.09024
upperback 3.24551 -1.19576 -0.687492
thorax -1.91819 -0.603779 1.71893
lowerneck -11.3521 5.36038 -10.518
upperneck 48.2236 11.2748 2.43115
head 20.2529 2.77543 5.21113
rclavicle -8.84592e-015 1.03368e-014
rhumerus -34.8794 -14.247 -79.9221
rradius 31.3787
rwrist 6.21103
rhand -14.4867 6.42155
rfingers 7.12502
rthumb 11.6598 -23.234
lclavicle -8.84592e-015 1.03368e-014
lhumerus -20.6221 5.37861 83.7897
lradius 44.453
lwrist 0.66402
lhand -18.5937 27.7955
lfingers 7.12502
lthumb 7.6973 57.6354
rfemur -27.615 -6.64414 19.7788
rtibia 29.0574
rfoot -0.000827315 -2.59649
rtoes 9.86472
lfemur 2.51995 -3.83464 -26.1725
ltibia 18.9151
lfoot -2.00428 -12.1418
ltoes -15.0123
1772
root 12.4212 18.2844 -1.10615 183.069 181.714 -173.706
lowerback 9.61461 -0.53251 -4.02102
upperback 3.28546 -1.09867 -0.762053
thorax -1.91277 -0.555656 1.59287
lowerneck -11.3137 5.40725 -10.4349
upperneck 48.2635 11.3238 2.43557
head 20.2697 2.80875 5.20824
rclavicle -3.97569e-015 9.54166e-015
rhumerus -34.7023 -13.9026 -80.2253
rradius 31.9165
rwrist 5.71129
rhand -14.6376 5.79916
rfingers 7.12502
rthumb 11.5142 -23.8646
lclavicle -3.97569e-015 9.54166e-015
lhumerus -20.7814 5.50189 83.6232
lradius 44.4755
lwrist 0.873477
lhand -18.4794 27.4429
lfingers 7.12502
lthumb 7.80764 57.2787
rfemur -27.7 -6.63427 19.5218
rtibia 28.7339
rfoot -0.91474 -1.92346
rtoes 7.05281
lfemur 1.94695 -3.48572 -26.2319
ltibia 19.0921
lfoot -2.40529 -12.3881
ltoes -15.1192
1773
root 12.4557 18.2673 -1.21607 183.15 181.824 -173.565
lowerback 9.58222 -0.46303 -4.12555
upperback 3.40397 -1.01216 -0.80391
thorax -1.77544 -0.517043 1.59724
lowerneck -11.1747 5.42816 -10.5793
upperneck 48.0871 11.3638 2.41461
head 20.0878 2.82214 5.20154
rclavicle 1.47101e-014 2.34566e-014
rhumerus -34.3693 -13.4279 -80.4941
rradius 32.4684
rwrist 5.25528
rhand -14.7059 5.36754
rfingers 7.12502
rthumb 11.4484 -24.2999
lclavicle 1.47101e-014 2.34566e-014
lhumerus -20.8095 5.73516 83.5152
lradius 44.4529
lwrist 1.0159
lhand -18.319 26.6099
lfingers 7.12502
lthumb 7.96248 56.4399
rfemur -27.8725 -6.64596 19.1129
rtibia 28.5415
rfoot -1.96105 -1.19924
rtoes 4.59495
lfemur 1.44194 -3.18131 -26.4391
ltibia 19.1593
lfoot -2.57711 -12.5407
ltoes -14.0946
1774
root 12.4899 18.2791 -1.32331 183.178 181.92 -173.496
lowerback 9.69955 -0.45506 -4.14197
upperback 3.51335 -1.00608 -0.81209
thorax -1.72654 -0.516487 1.59805
lowerneck -11.1441 5.49416 -10.8869
upperneck 48.0307 11.5317 2.4573
head 19.992 2.84941 5.2901
rclavicle -1.88845e-015 2.38542e-015
rhumerus -33.9004 -12.984 -80.7144
rradius 32.7616
rwrist 5.15308
rhand -14.6243 5.36953
rfingers 7.12502
rthumb 11.5271 -24.2935
lclavicle -1.88845e-015 2.38542e-015
lhumerus -20.9024 6.09292 83.3751
lradius 44.5112
lwrist 1.10011
lhand -18.07 26.476
lfingers 7.12502
lthumb 8.20278 56.2968
rfemur -28.0011 -6.6354 18.7465
rtibia 28.5569
rfoot -3.2941 -0.519979
rtoes 1.18628
lfemur 1.04966 -2.84052 -26.5794
ltibia 19.1353
lfoot -2.76412 -12.6771
ltoes -14.0612
